<svg width="24" height="24" viewBox="0 0 24 24" fill="none" xmlns="http://www.w3.org/2000/svg">
<g clip-path="url(#clip0_1_1438)">
<mask id="mask0_1_1438" style="mask-type:luminance" maskUnits="userSpaceOnUse" x="0" y="0" width="24" height="24">
<path d="M0 0H23.9963V23.9963H0V0Z" fill="white"/>
</mask>
<g mask="url(#mask0_1_1438)">
<path d="M10.212 0.619553C11.3951 0.434758 12.5997 0.434758 13.7827 0.619553L14.4877 2.56055C14.5737 2.79108 14.7062 3.00144 14.877 3.17848C15.0478 3.35552 15.2533 3.49545 15.4806 3.58955C15.7079 3.68364 15.9522 3.72987 16.1982 3.72535C16.4441 3.72084 16.6865 3.66567 16.9102 3.5633L18.7792 2.6903C19.7466 3.39655 20.5989 4.24811 21.306 5.2148L20.4322 7.08605C20.3301 7.30979 20.2752 7.55215 20.2708 7.79805C20.2665 8.04395 20.3128 8.2881 20.407 8.51531C20.5011 8.74251 20.6411 8.94788 20.8181 9.11864C20.9951 9.28939 21.2053 9.42187 21.4357 9.5078L23.3767 10.2128C23.5616 11.3959 23.5616 12.6005 23.3767 13.7836L21.4357 14.4886C21.2051 14.5743 20.9946 14.7067 20.8174 14.8775C20.6402 15.0482 20.5001 15.2537 20.406 15.4811C20.3118 15.7084 20.2655 15.9528 20.27 16.1988C20.2746 16.4448 20.3298 16.6873 20.4322 16.9111L21.306 18.7823C20.5987 19.749 19.7461 20.6006 18.7785 21.3068L16.9095 20.4331C16.6858 20.331 16.4436 20.2762 16.1978 20.2718C15.952 20.2675 15.708 20.3138 15.4809 20.4079C15.2538 20.5019 15.0485 20.6417 14.8778 20.8186C14.707 20.9954 14.5745 21.2055 14.4885 21.4358L14.2485 22.1183M13.7827 23.3776C12.5999 23.5623 11.3956 23.5623 10.2127 23.3776L9.507 21.4358C9.42099 21.2054 9.28846 20.9953 9.11767 20.8183C8.94688 20.6414 8.7415 20.5016 8.5143 20.4075C8.28711 20.3134 8.04298 20.2672 7.79712 20.2715C7.55126 20.2759 7.30893 20.3309 7.08525 20.4331L5.21625 21.3076C4.24797 20.601 3.3953 19.7483 2.68875 18.7801L3.5625 16.9111C3.66682 16.6877 3.72352 16.4452 3.72899 16.1987C3.73446 15.9523 3.68857 15.7075 3.59425 15.4797C3.49993 15.252 3.35924 15.0464 3.18114 14.876C3.00304 14.7057 2.79142 14.5742 2.55975 14.4901L0.617999 13.7851C0.433089 12.6017 0.433089 11.3969 0.617999 10.2136L2.55975 9.50855C2.79028 9.42265 3.00063 9.29014 3.17767 9.11932C3.35472 8.9485 3.49465 8.74302 3.58874 8.5157C3.68283 8.28839 3.72906 8.04412 3.72455 7.79814C3.72003 7.55217 3.66487 7.30976 3.5625 7.08605L2.6895 5.2148C3.3966 4.2481 4.24892 3.39654 5.21625 2.6903L7.08525 3.56255C7.30892 3.6648 7.55126 3.71987 7.79715 3.72432C8.04304 3.72877 8.28721 3.68251 8.51444 3.58843C8.74166 3.49434 8.94706 3.35445 9.11783 3.17748C9.2886 3.0005 9.42108 2.79024 9.507 2.5598L9.71325 1.9913" stroke="url(#paint0_linear_1_1438)" stroke-width="0.96" stroke-linecap="round" stroke-linejoin="round"/>
<path d="M16.3162 9.72612L15.2145 8.63862C15.0927 8.51762 14.9279 8.44971 14.7562 8.44971C14.5845 8.44971 14.4198 8.51762 14.298 8.63862L10.968 11.9694L9.69525 10.6981C9.63528 10.6376 9.5639 10.5895 9.48525 10.5567C9.40659 10.5239 9.32222 10.507 9.237 10.507C9.15178 10.507 9.0674 10.5239 8.98875 10.5567C8.91009 10.5895 8.83872 10.6376 8.77875 10.6981L7.68975 11.7871C7.56865 11.9086 7.50066 12.0731 7.50066 12.2446C7.50066 12.4161 7.56865 12.5807 7.68975 12.7021L10.233 15.2476C10.4278 15.4414 10.6914 15.5502 10.9661 15.5502C11.2409 15.5502 11.5045 15.4414 11.6992 15.2476L16.3162 10.6426C16.4372 10.5208 16.5052 10.3561 16.5052 10.1844C16.5052 10.0127 16.4372 9.84794 16.3162 9.72612Z" stroke="url(#paint1_linear_1_1438)" stroke-width="0.96" stroke-linecap="round" stroke-linejoin="round"/>
</g>
</g>
<defs>
<linearGradient id="paint0_linear_1_1438" x1="0.479317" y1="11.9985" x2="23.5154" y2="11.9985" gradientUnits="userSpaceOnUse">
<stop stop-color="#FF8177"/>
<stop stop-color="#FF867A"/>
<stop offset="0.21" stop-color="#FF8C7F"/>
<stop offset="0.52" stop-color="#F99185"/>
<stop offset="0.78" stop-color="#CF556C"/>
<stop offset="1" stop-color="#B12A5B"/>
</linearGradient>
<linearGradient id="paint1_linear_1_1438" x1="7.50066" y1="11.9999" x2="16.5052" y2="11.9999" gradientUnits="userSpaceOnUse">
<stop stop-color="#FF8177"/>
<stop stop-color="#FF867A"/>
<stop offset="0.21" stop-color="#FF8C7F"/>
<stop offset="0.52" stop-color="#F99185"/>
<stop offset="0.78" stop-color="#CF556C"/>
<stop offset="1" stop-color="#B12A5B"/>
</linearGradient>
<clipPath id="clip0_1_1438">
<rect width="24" height="24" fill="white"/>
</clipPath>
</defs>
</svg>
